<mxfile host="app.diagrams.net" modified="2020-12-22T07:43:59.755Z" agent="5.0 (Windows NT 10.0; Win64; x64) AppleWebKit/537.36 (KHTML, like Gecko) Chrome/87.0.4280.88 Safari/537.36" etag="dthZC_qJCk4qC14GKxZj" version="14.0.1" type="github">
  <diagram id="dLRuijo1h4lTfzTn_HyQ" name="Page-1">
    <mxGraphModel dx="868" dy="450" grid="1" gridSize="10" guides="1" tooltips="1" connect="1" arrows="1" fold="1" page="1" pageScale="1" pageWidth="827" pageHeight="1169" math="0" shadow="0">
      <root>
        <mxCell id="0" />
        <mxCell id="1" parent="0" />
        <mxCell id="CfXr2gRNgboXZwhCLkDg-1" value="&lt;span style=&quot;font-size: 11pt ; line-height: 107% ; font-family: &amp;#34;calibri&amp;#34; , sans-serif&quot;&gt;trainees&lt;/span&gt;&lt;span style=&quot;font-size: 11.0pt ; line-height: 107% ; font-family: &amp;#34;calibri&amp;#34; , sans-serif&quot;&gt;&lt;/span&gt;" style="rounded=0;whiteSpace=wrap;html=1;" parent="1" vertex="1">
          <mxGeometry x="40" y="20" width="120" height="60" as="geometry" />
        </mxCell>
        <mxCell id="CfXr2gRNgboXZwhCLkDg-40" style="edgeStyle=orthogonalEdgeStyle;rounded=0;orthogonalLoop=1;jettySize=auto;html=1;entryX=0.5;entryY=1;entryDx=0;entryDy=0;endArrow=none;endFill=0;startArrow=ERoneToMany;startFill=0;" parent="1" source="CfXr2gRNgboXZwhCLkDg-2" target="CfXr2gRNgboXZwhCLkDg-32" edge="1">
          <mxGeometry relative="1" as="geometry" />
        </mxCell>
        <mxCell id="CfXr2gRNgboXZwhCLkDg-2" value="&lt;span style=&quot;font-size: 11pt ; line-height: 107% ; font-family: &amp;#34;calibri&amp;#34; , sans-serif ; background-color: rgb(255 , 255 , 255)&quot;&gt;Teachers&lt;/span&gt;" style="rounded=0;whiteSpace=wrap;html=1;" parent="1" vertex="1">
          <mxGeometry x="40" y="360" width="120" height="60" as="geometry" />
        </mxCell>
        <mxCell id="CfXr2gRNgboXZwhCLkDg-3" value="&lt;span style=&quot;font-size: 11pt ; line-height: 107% ; font-family: &amp;#34;calibri&amp;#34; , sans-serif ; background-color: rgb(255 , 255 , 255)&quot;&gt;course&lt;/span&gt;&lt;span style=&quot;font-size: 11.0pt ; line-height: 107% ; font-family: &amp;#34;calibri&amp;#34; , sans-serif&quot;&gt;&lt;/span&gt;" style="whiteSpace=wrap;html=1;" parent="1" vertex="1">
          <mxGeometry x="400" y="80" width="120" height="60" as="geometry" />
        </mxCell>
        <mxCell id="CfXr2gRNgboXZwhCLkDg-19" value="&lt;span style=&quot;font-size: 11pt ; line-height: 107% ; font-family: &amp;#34;calibri&amp;#34; , sans-serif ; background-color: rgb(255 , 255 , 255)&quot;&gt;training information&lt;/span&gt;" style="whiteSpace=wrap;html=1;" parent="1" vertex="1">
          <mxGeometry x="380" y="360" width="120" height="60" as="geometry" />
        </mxCell>
        <mxCell id="CfXr2gRNgboXZwhCLkDg-35" style="edgeStyle=orthogonalEdgeStyle;rounded=0;orthogonalLoop=1;jettySize=auto;html=1;entryX=0.5;entryY=0;entryDx=0;entryDy=0;endArrow=ERoneToMany;endFill=0;startArrow=classic;startFill=1;" parent="1" source="CfXr2gRNgboXZwhCLkDg-20" target="CfXr2gRNgboXZwhCLkDg-2" edge="1">
          <mxGeometry relative="1" as="geometry" />
        </mxCell>
        <mxCell id="CfXr2gRNgboXZwhCLkDg-36" style="edgeStyle=orthogonalEdgeStyle;rounded=0;orthogonalLoop=1;jettySize=auto;html=1;endArrow=ERoneToMany;endFill=0;startArrow=none;startFill=0;" parent="1" source="CfXr2gRNgboXZwhCLkDg-20" target="CfXr2gRNgboXZwhCLkDg-1" edge="1">
          <mxGeometry relative="1" as="geometry" />
        </mxCell>
        <mxCell id="CfXr2gRNgboXZwhCLkDg-20" value="&lt;span style=&quot;font-size: 11.0pt ; line-height: 107% ; font-family: &amp;#34;calibri&amp;#34; , sans-serif&quot;&gt;teaching&lt;/span&gt;" style="rhombus;whiteSpace=wrap;html=1;" parent="1" vertex="1">
          <mxGeometry x="30" y="170" width="80" height="80" as="geometry" />
        </mxCell>
        <mxCell id="CfXr2gRNgboXZwhCLkDg-49" style="edgeStyle=orthogonalEdgeStyle;rounded=0;orthogonalLoop=1;jettySize=auto;html=1;endArrow=none;endFill=0;entryX=0.45;entryY=0.983;entryDx=0;entryDy=0;entryPerimeter=0;" parent="1" source="CfXr2gRNgboXZwhCLkDg-30" target="CfXr2gRNgboXZwhCLkDg-3" edge="1">
          <mxGeometry relative="1" as="geometry">
            <mxPoint x="420" y="190" as="targetPoint" />
            <Array as="points">
              <mxPoint x="470" y="260" />
              <mxPoint x="470" y="190" />
              <mxPoint x="454" y="190" />
            </Array>
          </mxGeometry>
        </mxCell>
        <mxCell id="CfXr2gRNgboXZwhCLkDg-50" style="edgeStyle=orthogonalEdgeStyle;rounded=0;orthogonalLoop=1;jettySize=auto;html=1;entryX=0.75;entryY=0;entryDx=0;entryDy=0;endArrow=ERmandOne;endFill=0;" parent="1" source="CfXr2gRNgboXZwhCLkDg-30" target="CfXr2gRNgboXZwhCLkDg-19" edge="1">
          <mxGeometry relative="1" as="geometry" />
        </mxCell>
        <mxCell id="CfXr2gRNgboXZwhCLkDg-30" value="based on" style="rhombus;whiteSpace=wrap;html=1;" parent="1" vertex="1">
          <mxGeometry x="430" y="180" width="80" height="80" as="geometry" />
        </mxCell>
        <mxCell id="CfXr2gRNgboXZwhCLkDg-43" style="edgeStyle=orthogonalEdgeStyle;rounded=0;orthogonalLoop=1;jettySize=auto;html=1;endArrow=ERoneToMany;endFill=0;" parent="1" source="CfXr2gRNgboXZwhCLkDg-31" edge="1">
          <mxGeometry relative="1" as="geometry">
            <mxPoint x="160" y="50" as="targetPoint" />
            <Array as="points">
              <mxPoint x="205" y="60" />
              <mxPoint x="205" y="50" />
            </Array>
          </mxGeometry>
        </mxCell>
        <mxCell id="CfXr2gRNgboXZwhCLkDg-44" style="edgeStyle=orthogonalEdgeStyle;rounded=0;orthogonalLoop=1;jettySize=auto;html=1;entryX=0.25;entryY=0;entryDx=0;entryDy=0;endArrow=ERoneToMany;endFill=0;" parent="1" source="CfXr2gRNgboXZwhCLkDg-31" target="CfXr2gRNgboXZwhCLkDg-3" edge="1">
          <mxGeometry relative="1" as="geometry" />
        </mxCell>
        <mxCell id="CfXr2gRNgboXZwhCLkDg-31" value="registers" style="rhombus;whiteSpace=wrap;html=1;" parent="1" vertex="1">
          <mxGeometry x="240" y="20" width="80" height="80" as="geometry" />
        </mxCell>
        <mxCell id="CfXr2gRNgboXZwhCLkDg-32" value="teaches&amp;nbsp;" style="rhombus;whiteSpace=wrap;html=1;" parent="1" vertex="1">
          <mxGeometry x="210" y="180" width="80" height="80" as="geometry" />
        </mxCell>
        <mxCell id="CfXr2gRNgboXZwhCLkDg-52" value="" style="edgeStyle=entityRelationEdgeStyle;fontSize=12;html=1;endArrow=ERzeroToMany;endFill=1;exitX=1;exitY=0.5;exitDx=0;exitDy=0;entryX=-0.017;entryY=0.633;entryDx=0;entryDy=0;entryPerimeter=0;" parent="1" edge="1" target="CfXr2gRNgboXZwhCLkDg-3" source="CfXr2gRNgboXZwhCLkDg-32">
          <mxGeometry width="100" height="100" relative="1" as="geometry">
            <mxPoint x="400" y="340" as="sourcePoint" />
            <mxPoint x="380" y="210" as="targetPoint" />
          </mxGeometry>
        </mxCell>
      </root>
    </mxGraphModel>
  </diagram>
</mxfile>
